<svg width="446" height="359" viewBox="0 0 446 359" fill="none" xmlns="http://www.w3.org/2000/svg">
<path d="M176.533 301.843L170.085 296.223V291.874L158.8 299.546L153.427 303.162L150.056 306.339L148.298 303.798L138.332 290.603L139.016 290.066L139.26 289.333L138.821 288.697L134.375 293.193L129.686 298.08L126.901 300.67L124.019 302.332L121.235 302.869H119.574L117.815 302.576L115.715 301.452L114.2 301.012H112.002L108.192 302.918L108.143 302.234C108.143 302.234 108.094 300.817 108.094 300.621C108.094 300.426 107.557 299.106 107.557 299.106L107.459 297.347C107.459 297.347 107.264 294.806 107.264 294.659C107.264 294.513 106.58 291.825 106.58 291.825L105.798 289.333L105.7 287.525L104.675 285.423L101.255 286.01C101.255 286.01 97.9821 286.107 97.8355 286.107C97.689 286.107 96.37 286.645 96.37 286.645L90.7034 286.205L88.0655 287.622L85.1834 289.088L80.9823 291.532L76.3415 292.9L73.8013 293.535L72.1893 293.633L69.6979 295.441L48.3017 308.294V310.346L48.1063 312.594L47.4712 315.819L48.204 315.722L51.4281 315.037L53.5286 314.549L56.5573 313.62L56.8504 315.868L54.7499 317.481L51.8189 317.823L47.9597 318.36L45.1753 317.481L43.0747 317.236L40.1926 317.09L37.9455 316.21L37.6524 315.477L35.503 316.992L33.207 319.289L31.0088 321.83L30.0806 323.247C30.0806 323.247 31.0576 324.322 31.3019 324.42C31.5461 324.518 32.0835 325.495 32.0835 325.495L31.8392 326.619L30.4714 326.717L28.4686 325.495C28.4686 325.495 27.3939 324.616 27.3939 324.469C27.3939 324.322 27.7358 322.123 27.7358 322.123L28.2732 321.586L30.276 321.39L31.3996 320.169C31.3996 320.169 33.1582 318.409 33.207 318.263C33.2559 318.116 34.8191 316.552 34.8191 316.552L33.1093 316.65L32.9139 316.259L32.4743 315.477L34.5748 314.695L31.3996 313.474L30.9599 313.767L30.3737 314.695L29.3967 315.673L28.0289 316.259L26.71 316.845C26.71 316.845 25.5376 316.161 25.391 316.112C25.2445 316.064 24.0232 315.184 24.0232 315.184L22.7531 313.327L21.1899 311.47L20.5549 310.884L19.4313 310.395L17.4773 309.808L16.1584 308.538L15.963 307.512L14.9371 306.29L14.2532 305.752L14.3998 305.459L15.0837 304.726L14.3998 304.237H13.0808L13.2762 303.456L13.7647 302.625L14.4486 301.745L15.0348 300.475L14.986 299.693L13.032 298.96L12.7494 299.847L13.0425 301.752L12.6029 302.779L11.2839 302.632H9.23235V301.166L8.93925 299.407L8.35305 299.114L6.1549 300.14L6.448 301.166L7.76695 302.339V303.218L6.30155 303.805L5.42225 302.925L3.5172 302.485C3.5172 302.485 2.3448 302.192 1.90515 301.752C1.4655 301.313 2.0517 299.847 2.0517 299.847L1.4655 298.087L1.1724 295.888L0 293.396L0.879299 293.103L3.5171 291.051L5.71525 289.292L7.3273 286.653C7.3273 286.653 8.06005 287.093 8.4996 287.093C8.93915 287.093 10.6978 287.532 10.6978 287.532L11.577 285.92L14.0683 283.428L15.9733 281.669L15.3872 278.737L15.6803 277.857L17.5853 275.512L20.2231 273.312L22.5678 272.286V270.967L23.154 269.794L21.2488 268.182L19.1973 264.956L18.3181 264.517L16.9991 264.223L15.8268 262.757L16.413 261.878L14.801 260.265L12.7494 258.799L13.0425 257.626L13.7647 255.467L14.009 252.242L13.7647 250.043L12.3481 248.87L12.8366 246.377L12.4946 244.276L12.1038 242.859L14.2532 238.656C14.2532 238.656 15.3279 235.871 15.4256 235.724C15.5233 235.578 16.3049 233.232 16.3049 233.085C16.3049 232.939 16.3049 231.668 16.3049 231.668L16.2561 229.664L21.9227 227.856L26.2215 221.797L30.9111 215.053L36.4311 207.038L40.5834 201.614L44.6868 196.532C44.6868 196.532 45.9569 195.31 45.9569 195.163C45.9569 195.017 47.1781 193.453 47.1781 193.453L47.9109 193.209L41.7558 190.032L39.8995 189.25L36.48 187.149L33.0116 185.39L31.7904 185.292L31.253 183.826L30.1295 182.946L28.322 183.288L23.9255 184.706C23.9255 184.706 20.0175 185.878 19.8221 185.878C19.6267 185.878 16.8423 186.269 16.8423 186.269L13.3739 186.563L13.7647 183.24L13.8136 180.698V176.154L14.009 172.049L14.3021 169.605L15.6699 165.842L16.1584 163.595L16.4515 159.734L16.8423 157.584L17.3796 153.234L18.6986 147.517L19.4802 143.656L20.7991 144.634C20.7991 144.634 21.8738 146.002 22.0204 146.051C22.1669 146.1 24.0232 146.784 24.0232 146.784L26.3192 147.224C26.3192 147.224 28.0778 147.37 28.2243 147.37C28.3709 147.37 28.9571 147.077 28.9571 147.077L29.5921 146.882L29.8852 146.051V145.367L30.5203 144.487V143.412L30.0806 140.187L29.2013 138.036L30.1783 136.668L30.3737 133.052L31.5461 130.902L32.23 127.97L33.207 126.699V124.549L33.5978 123.767L33.5001 119.466C33.5001 119.466 32.3277 116.143 31.9369 115.557C31.5461 114.971 30.9599 113.602 30.9599 113.602L30.4714 113.016L26.5634 115.068L23.7301 116.339H22.3623C22.3623 116.339 20.0175 117.512 19.6267 117.512C19.2359 117.512 18.552 116.143 18.552 116.143L17.8681 114.091L16.6957 113.993L17.0865 111.061L16.3049 110.67L16.4026 109.693L16.9888 109.204L18.552 109.986L21.483 108.911L22.46 107.249L26.2703 106.467L29.3967 104.415L32.23 100.017C32.23 100.017 33.5978 97.4757 33.9886 97.2802C34.3794 97.0848 37.115 96.1074 37.115 96.1074L39.6552 95.7165L41.5115 97.378L42.3908 97.6712H43.6609L45.3218 98.9418L46.4942 99.4305L48.2528 99.6259L49.816 99.9191L50.9884 100.31H52.8447L54.0171 101.678L55.678 102.167L57.2412 103.438L59.1952 104.415L62.0285 104.61L65.2526 105.979L68.0859 107.347L68.6721 105.49L72.4824 105.392L74.9249 106.174L75.8042 102.851V101.092L74.4364 99.1372L72.287 97.4757L69.6491 95.521L65.904 91.0251L63.6894 88.0278L63.4288 85.8124L64.8618 84.6396L66.6204 83.3365L68.1836 79.6225L69.6816 76.2994L70.7238 73.8235L71.6356 71.6733L73.0034 70.1095L74.0456 66.8516L74.762 64.2453L74.8272 61.6389L78.4095 61.248L78.5398 61.8344L81.3405 61.8996L83.7504 61.5087H85.6393C85.6393 61.5087 87.5283 61.1177 87.7887 61.1177C88.0492 61.1177 89.0262 60.5313 89.2868 60.5313C89.5473 60.5313 90.85 61.3784 91.0454 61.3784C91.2408 61.3784 92.2829 61.5739 92.2829 61.5739L93.325 61.1829L96.1909 61.2481L98.7311 60.8572C98.7311 60.8572 100.881 60.4662 101.402 60.5965C101.923 60.7268 104.007 61.3784 103.812 61.3132C103.616 61.248 103.681 55.2535 103.681 55.2535L103.421 52.3866L102.704 50.3667L101.597 48.2165L101.467 46.3269C101.467 46.3269 104.984 47.174 105.244 47.174C105.505 47.174 107.264 46.9786 107.264 46.9786L108.827 46.3921L111.041 46.5224C111.041 46.5224 113.777 45.7405 114.037 45.7405C114.298 45.7405 115.601 45.2844 115.601 45.2844L115.861 32.8393H113.516L113.972 23.6521L117.88 24.6294L120.681 24.8901L124.459 24.7598L126.999 24.3689L130.125 24.0431L132.014 26.1933L125.957 30.9499L131.689 41.1145L132.275 41.2447C132.275 41.2447 131.754 44.633 131.754 44.8284C131.754 45.0239 131.037 46.0013 131.037 46.0013L131.167 47.6303L130.972 49.6502L132.796 53.4294L133.317 55.4493L133.512 56.4267L129.083 59.0981L133.187 58.5117L135.597 58.0555C135.597 58.0555 138.788 59.3587 139.179 59.3587C139.57 59.3587 142.37 59.4889 142.37 59.4889L148.037 61.183L151.945 63.0075L153.899 62.2256L156.765 61.5739L161.454 61.1178L161.845 62.2255L164.255 61.1829L165.818 61.4436L167.382 60.4662L168.945 59.554L172.006 58.4464L172.918 58.1857L174.09 56.5567L174.872 56.3613L176.761 55.2536L178.129 53.5595L177.282 51.9958L179.171 48.5424L179.431 49.0637L180.343 48.1515L181.385 47.5651L181.125 47.0438L180.473 46.7832L181.776 45.9361L183.209 46.0013L184.772 45.2194L185.423 44.3072L185.814 42.2222L185.684 39.9417L187.117 38.0522L187.899 34.6639L188.159 33.7518H189.657L189.853 33.1653L190.308 32.4486L194.151 35.9672L196.561 37.3355L197.734 38.5083C197.734 38.5083 200.404 37.0748 200.599 37.3355C200.795 37.5961 201.381 38.3128 201.381 38.3128H202.358V40.0069C202.358 40.0069 204.573 42.3526 204.768 42.4829C204.963 42.6132 209.197 45.1543 209.197 45.1543L211.802 42.9389L214.212 43.1996L215.385 42.0267L214.733 39.0946L214.799 35.1852L218.837 33.882L219.032 29.8423L220.921 29.1907C220.921 29.1907 223.07 28.7346 223.266 28.7346C223.461 28.7346 226.327 28.6043 226.327 28.6043L226.457 29.5816C226.457 29.5816 231.343 30.1029 231.473 29.9074C231.603 29.7119 233.166 29.4513 233.166 29.1907C233.166 28.93 233.557 27.5617 233.557 27.5617L234.99 26.7798L236.032 26.0631L237.986 25.7374L238.833 24.1736L240.461 23.3265L240.201 21.1763L239.354 20.6551L232.645 20.1989C232.645 20.1989 227.239 15.703 226.718 15.703C226.197 15.703 223.852 14.6605 223.852 14.6605L229.845 7.55826L234.078 8.92657L236.488 5.01711L237.205 5.21258L239.875 0.977366L240.852 1.62898L242.741 0L243.327 0.781892C243.327 0.781892 240.461 6.45061 240.526 6.64609C240.592 6.84156 241.243 8.66601 241.243 8.66601L248.929 4.3656L247.496 17.5923L251.729 21.8927L259.936 26.3234L261.76 26.9098L266.775 31.0799L270.944 29.1252L272.051 31.2102L273.354 31.2754L272.898 39.1595L271.074 47.8255L263.518 52.7776L263.584 59.2282L262.672 59.8146L259.545 69.0018L258.764 75.7782L260.327 75.3221L267.492 89.1355L277.131 87.7672L279.476 88.1581L282.928 88.94L287.553 90.3735L293.349 91.9373L293.284 92.5889L297.062 94.5436L300.514 97.2802L303.706 99.7562L305.79 102.297L307.549 104.904L308.851 107.706L312.824 106.142L314.192 107.119L314.909 109.139L317.058 109.009L318.621 112.918L318.751 115.394L319.598 117.414L319.794 119.434L320.119 121.389L321.422 123.474L322.725 125.428L322.399 127.709V129.794L322.073 132.009L340.897 136.505L346.498 137.157L350.341 137.287L356.073 138.134L356.464 139.372L354.314 142.956L352.751 142.761C352.751 142.761 352.49 143.347 352.23 143.347C351.969 143.347 351.253 143.021 351.253 143.021C351.253 143.021 350.536 143.347 350.341 143.347C350.146 143.347 348.322 143.151 348.322 143.151L349.234 147.061L348.778 147.647L349.625 151.492L352.034 151.231L356.985 150.579L362.065 151.361L365.452 151.166L370.207 150.579L371.509 154.749L368.513 157.616L366.038 159.636L363.628 161.656L361.023 164.197L358.222 167.52L355.617 171.951L354.444 175.404L353.532 178.597L352.751 182.767L352.1 186.416L351.644 189.478L350.862 190.651L354.509 191.824L352.034 196.124L345.912 205.638L345.456 211.241L347.084 212.153C347.084 212.153 344.153 216.584 344.349 216.584C344.544 216.584 346.824 217.301 346.824 217.301L348.126 215.867L350.927 216.78L350.992 218.865L351.318 218.93L351.253 220.95L352.1 221.015L352.295 220.559L351.904 218.539L353.272 218.278L353.142 213.196L355.226 213.131C355.226 213.131 356.724 211.502 356.919 211.371C357.115 211.241 359.85 210.133 359.85 210.133L362.13 208.7C362.13 208.7 364.54 206.159 364.801 206.159C365.061 206.159 367.666 206.485 367.666 206.485L370.988 208.048L372.682 208.179L375.222 209.938L377.436 211.176C377.436 211.176 378.544 211.241 378.934 211.241C379.325 211.241 381.149 210.59 381.149 210.59L383.038 211.762L386.164 213.978L389.225 215.607L390.463 217.692C390.463 217.692 392.156 218.799 392.352 218.865C392.547 218.93 394.371 219.386 394.371 219.386L398.539 219.842L400.428 220.168C400.428 220.168 401.731 223.426 401.731 223.621C401.731 223.817 401.926 225.967 401.926 225.967L402.969 227.726L402.903 229.159V230.137L407.267 230.332L407.723 228.573L407.658 226.553L407.267 224.794L405.704 224.468L404.923 219.842L403.555 217.757L402.773 215.802L403.946 215.867L406.29 217.952L409.352 219.907C409.352 219.907 411.501 221.145 411.696 221.145C411.892 221.145 413.39 221.145 413.39 221.145L415.67 224.012L417.428 227.531C417.428 227.531 419.643 229.746 419.838 229.746C420.034 229.746 421.988 231.961 421.988 231.961C421.988 231.961 423.225 233.46 423.551 233.525C423.876 233.59 426.742 233.655 426.742 233.655L427.263 233.199L427.915 233.33L428.11 233.916C428.11 233.916 432.93 234.893 433.191 234.893C433.451 234.893 434.102 234.307 434.102 234.307C434.102 234.307 438.271 235.74 438.466 235.74C438.662 235.74 441.137 237.109 441.137 237.109L441.528 237.891L442.179 237.5L441.072 240.562L443.091 240.888L442.309 245.514L445.957 245.97L444.915 247.86L441.202 247.795L442.049 242.256L438.531 242.908L434.493 246.557L434.037 251.965L431.367 252.16L430.911 252.356H428.175L425.7 251.443L423.03 249.814L420.815 248.251L420.164 247.664L420.229 248.968L422.248 250.596L424.463 251.834L426.156 252.291L427.98 252.682L429.999 252.812L431.953 253.268L431.823 256.721L433.516 257.503L433.125 259.067L430.65 259.458L427.068 266.43L427.263 267.733L426.873 268.971L426.417 270.795L427.198 272.294L428.306 273.793L429.608 275.552L429.413 276.334L431.562 277.441L432.409 278.745L432.735 280.439L431.106 281.677L430.52 284.218L430.455 285.847L427.915 288.518L427.198 288.323L426.612 288.453H426.026L424.853 289.105L423.746 290.212L421.988 290.538L421.206 290.082L419.903 290.147L419.122 289.365L417.559 290.408L416.386 291.646L415.344 292.297L415.083 293.21L414.237 293.926L413.064 294.708L412.022 295.295L411.11 296.272L410.264 296.337L408.179 299.66L407.984 298.552L407.202 298.422L406.942 300.312L405.574 301.941L404.532 303.505L403.359 304.742L402.317 305.85H401.145L400.494 306.176L399.973 307.544L400.95 308.587L401.992 308.261L405.704 310.411L408.766 309.89L407.593 313.93L409.352 313.995L409.808 314.321L409.743 315.428L408.961 317.122L408.114 319.207L406.812 321.749L405.379 323.573L405.769 324.746C405.769 324.746 404.597 324.941 404.792 325.007C404.988 325.072 405.183 325.593 405.183 325.593L404.141 325.202L403.164 325.593L402.187 325.658L399.973 324.225L398.474 323.573L396.325 324.355L393.459 326.31L391.505 326.831L390.724 328.786L390.398 329.437L389.616 329.893L388.77 331.718L388.444 335.497L388.574 337.126C388.574 337.126 387.076 337.321 387.076 337.517C387.076 337.712 386.685 338.82 386.685 338.82L386.36 340.384L385.773 341.687L384.275 342.404L384.21 343.707L382.908 344.293L382.842 346.183L382.452 347.747L382.582 349.05L381.8 349.962L381.084 351.07L379.977 353.155L379.911 354.849C379.911 354.849 380.042 357.064 380.042 357.325C380.042 357.585 379.26 358.563 379.26 358.563L377.827 358.954L376.264 358.628L375.026 357.781L374.245 357.716C374.245 357.716 372.356 355.305 372.03 355.24C371.705 355.175 369.555 351.461 369.555 351.461L369.164 347.942L369.099 341.622C369.099 341.622 369.23 337.908 369.23 337.712C369.23 337.517 370.467 335.106 370.467 335.106L373.463 331.457C373.463 331.457 375.157 329.568 375.222 329.242C375.287 328.916 375.222 327.222 375.222 327.222L374.44 324.746L371.444 324.159L371.9 321.293L371.053 316.536L365.061 318.295L361.283 313.017L347.215 322.205L347.54 319.859L347.215 318.621L346.824 317.904L346.498 317.579L347.149 316.471L346.563 314.581L345.13 313.604C345.13 313.604 344.609 312.236 344.414 312.17C344.218 312.105 343.241 311.454 343.241 311.454L342.069 309.955L340.05 309.564L339.073 307.87L339.138 307.023L338.943 306.111L338.226 305.85L337.835 304.873L338.226 303.635L338.291 302.657L337.835 301.745L337.054 301.028L331.908 303.7L328.717 304.612C328.717 304.612 325.981 305.655 325.721 305.655C325.46 305.655 323.767 306.241 323.767 306.241C323.767 306.241 321.617 307.479 321.422 307.479C321.227 307.479 318.361 308.456 318.361 308.456H315.234C315.234 308.456 312.173 308.391 311.847 308.391C311.522 308.391 308.982 308.522 308.982 308.522L306.246 308.652C306.246 308.652 304.162 308.652 303.966 308.652C303.771 308.652 298.951 308.782 298.951 308.782L298.756 306.762V304.417L298.951 302.462L299.602 299.465L299.993 297.314L300.449 296.207C300.449 296.207 298.169 297.705 297.909 297.705C297.648 297.705 295.173 299.53 295.173 299.53C295.173 299.53 291.2 298.031 290.809 297.836C290.419 297.64 287.357 296.077 287.357 296.077C287.357 296.077 285.989 295.62 285.729 295.62C285.468 295.62 284.035 296.467 283.71 296.533C283.384 296.598 279.802 297.705 279.802 297.705L275.829 298.618L271.66 299.66L266.124 301.745L261.825 303.179L260.522 297.054L258.503 292.428C258.503 292.428 252.902 277.832 252.25 277.767C251.599 277.702 250.036 276.855 249.515 276.855C248.994 276.855 246.258 277.572 246.258 277.572C246.258 277.572 238.051 282.328 237.791 282.393C237.53 282.459 232.971 284.869 232.971 284.869C232.971 284.869 228.803 287.541 228.281 287.476C227.76 287.41 220.27 290.343 220.27 290.343L220.14 293.34L227.565 315.884L227.044 318.36L223.592 327.417C223.592 327.417 214.408 327.026 213.626 327.157C212.845 327.287 202.228 326.831 202.228 326.831L200.795 315.298L189.592 315.689C189.592 315.689 190.244 310.15 190.048 310.085C189.853 310.02 183.274 306.567 183.274 306.567L176.533 301.843Z" fill="#F1EFEC" stroke="#3D3D3D" stroke-opacity="0.15"/>
</svg>
